# xmcd
#
# Track frame offsets: 
#        150
#        13432
#        26545
#        39955
#        53970
#        67965
#        82060
#        96567
#        107790
#        121687
#        134325
#        147647
#        160815
#        174030
#        186627
#        198987
#        210230
#        220750
#        233930
#        244570
#        256117
#        267312
#        279687
#        291807
#
# Disc length: 4041 seconds
#
# Revision: 2
# Processed by: cddbd v1.5.2PL0 Copyright (c) Steve Scherf et al.
# Submitted via: ExactAudioCopyFreeDBPlugin 1.0
#
DISCID=640fc718
DTITLE=T-Bone Walker - The Complete Recordings of T-Bone Walker, 1940-
DTITLE=1954 (Mosaic box set]
DYEAR=1990
DGENRE=Blues
TTITLE0=I Wish You Were Mine (alternate take)
TTITLE1=I Wish You Were Mine
TTITLE2=I'm Gonna Move You Out and Get Somebody Else
TTITLE3=She's the No Sleepin'est Woman (alternate take)
TTITLE4=She's the No Sleepin'est Woman
TTITLE5=Plain Old Down Home Blues
TTITLE6=Born to Be No Good
TTITLE7=Go Back to the One You Love (alternate take)
TTITLE8=Go Back to the One You Love
TTITLE9=I Want a Little Girl
TTITLE10=I'm Still in Love with You
TTITLE11=You're My Best Poker Hand (alternate take)
TTITLE12=You're My Best Poker Hand
TTITLE13=West Side Baby
TTITLE14=Glamour Girl
TTITLE15=Strollin' with Bone
TTITLE16=The Sun Went Down
TTITLE17=You Don't Love Me
TTITLE18=Travelin' Blues
TTITLE19=The Hustle is On (78 single take)
TTITLE20=The Hustle is On (LP album take)
TTITLE21=Baby Broke My Heart (78 single take)
TTITLE22=Baby Broke My Heart (LP album take)
TTITLE23=Evil Hearted Woman
EXTD=#2319 of 7500 8-D
EXTT0=
EXTT1=
EXTT2=
EXTT3=
EXTT4=
EXTT5=
EXTT6=
EXTT7=
EXTT8=
EXTT9=
EXTT10=
EXTT11=
EXTT12=
EXTT13=
EXTT14=
EXTT15=
EXTT16=
EXTT17=
EXTT18=
EXTT19=
EXTT20=
EXTT21=
EXTT22=
EXTT23=
PLAYORDER=
